<svg xmlns="http://www.w3.org/2000/svg" width="26" height="19" viewBox="0 0 26 19">
  <path id="np_envelope_1982262_000000" d="M9.289,18A3.311,3.311,0,0,0,6,21.305v12.39A3.311,3.311,0,0,0,9.289,37H28.711A3.31,3.31,0,0,0,32,33.695V21.305A3.31,3.31,0,0,0,28.711,18Zm0,1.781H28.711a1.5,1.5,0,0,1,1.517,1.524v12.39a1.5,1.5,0,0,1-1.517,1.524H9.289a1.5,1.5,0,0,1-1.517-1.524V21.305a1.5,1.5,0,0,1,1.517-1.524Zm18.419.66a.886.886,0,0,0-.619.274L19,28.843l-8.089-8.128A.885.885,0,0,0,9.454,21a.894.894,0,0,0,.2.973l5.5,5.526-5.5,5.526h0a.889.889,0,1,0,1.253,1.259l5.5-5.526,1.963,1.973h0a.883.883,0,0,0,1.253,0l1.963-1.973,5.5,5.526h0a.893.893,0,0,0,.63.274.884.884,0,0,0,.636-.261.893.893,0,0,0-.013-1.272l-5.5-5.526,5.5-5.526h0a.891.891,0,0,0-.635-1.533Z" transform="translate(-6 -18)" fill="#092772"/>
</svg>
