<svg xmlns="http://www.w3.org/2000/svg" width="13" height="22" viewBox="0 0 13 22">
  <path id="np_phone_2173681_000000" d="M22.4,0a1.961,1.961,0,0,0-1.955,1.956V20.044A1.961,1.961,0,0,0,22.4,22h9.09a1.961,1.961,0,0,0,1.955-1.956V1.956A1.961,1.961,0,0,0,31.486,0Zm3.456,1.884h2.179c.143,0,.259.164.259.367s-.116.367-.259.367H25.853c-.143,0-.259-.164-.259-.367s.116-.367.259-.367ZM21.516,4.5H32.369v13H21.516Zm5.426,14.042a1.211,1.211,0,1,1-1.21,1.211A1.211,1.211,0,0,1,26.942,18.539Z" transform="translate(-20.441)" fill="#092772"/>
</svg>
